<?xml version="1.0" standalone="no"?>
<!DOCTYPE svg PUBLIC "-//W3C//DTD SVG 20010904//EN"
 "http://www.w3.org/TR/2001/REC-SVG-20010904/DTD/svg10.dtd">
<svg version="1.0" xmlns="http://www.w3.org/2000/svg"
 width="200.000000pt" height="200.000000pt" viewBox="0 0 200.000000 200.000000"
 preserveAspectRatio="xMidYMid meet">

<g transform="translate(0.000000,200.000000) scale(0.100000,-0.100000)"
fill="#000000" stroke="none">
<path d="M950 1651 c-26 -8 -386 -214 -455 -260 -22 -15 -50 -44 -62 -66 -22
-39 -23 -48 -23 -324 0 -370 -11 -344 198 -465 35 -20 66 -36 69 -36 3 0 -9
16 -27 36 -17 20 -36 47 -41 61 -5 13 -9 189 -9 393 0 342 1 369 18 374 35 11
144 23 170 18 49 -9 52 -16 52 -143 l0 -119 160 0 160 0 0 238 0 237 -49 28
c-53 29 -121 41 -161 28z"/>
<path d="M1336 1479 c12 -13 31 -40 43 -59 20 -34 21 -47 21 -411 l0 -377 -63
-11 c-89 -15 -143 -14 -161 5 -13 12 -16 39 -16 130 l0 114 -160 0 -160 0 0
-235 0 -234 48 -28 c38 -23 59 -28 112 -28 65 0 66 0 260 114 282 164 286 167
309 215 20 40 21 60 21 325 0 354 4 343 -150 431 -41 24 -86 50 -100 59 l-25
15 21 -25z"/>
</g>
</svg>
